<svg xmlns="http://www.w3.org/2000/svg" viewBox="0 0 1120 256">
  <title>Class Action Finder</title>
  <g transform="translate(8 4) scale(.96)">
    <path fill="#22664F" d="M39 84h178c13 0 23 10 23 23v105c0 13-10 23-23 23H39c-13 0-23-10-23-23V107c0-13 10-23 23-23Z"/>
    <path fill="#F8F7F2" stroke="#22664F" stroke-width="12" d="M69 20h91l29 30v124H69z" stroke-linejoin="round"/>
    <path fill="none" stroke="#22664F" stroke-width="11" d="M159 21v31h30M92 78h74M92 104h62M92 130h45" stroke-linecap="round" stroke-linejoin="round"/>
    <path fill="#22664F" d="M16 112l103 69c5 4 13 4 18 0l103-69v100c0 13-10 23-23 23H39c-13 0-23-10-23-23Z"/>
    <path fill="none" stroke="#F8F7F2" stroke-width="10" d="m30 216 73-57M226 216l-54-42" stroke-linecap="round" opacity=".9"/>
    <circle cx="173" cy="164" r="50" fill="#F8F7F2" stroke="#22664F" stroke-width="14"/>
    <path fill="none" stroke="#7A3EC8" stroke-width="17" d="m145 162 18 18 37-42" stroke-linecap="round" stroke-linejoin="round"/>
    <path fill="none" stroke="#22664F" stroke-width="18" d="m209 201 30 30" stroke-linecap="round"/>
  </g>
  <text x="278" y="150" fill="#20231F" font-family="Inter, ui-sans-serif, -apple-system, BlinkMacSystemFont, 'Segoe UI', sans-serif" font-size="82" font-weight="650" letter-spacing="-3">Class Action <tspan fill="#22664F" font-weight="600">Finder</tspan></text>
</svg>
